# ProBuilder 5.2.3
# https://unity3d.com/unity/features/worldbuilding/probuilder
# 06/05/2025 13:55:36

mtllib ./Desk.mtl
o Desk

g Desk
v -6.844755 0.5 3.3
v -6.844755 0.5 0.4
v -7.044755 0.5 3.3
v -7.044755 0.5 0.4
v -6.744754 0 0.4
v -6.744754 0 0
v -7.144754 0 0.4
v -7.144754 0 0
v -7.144754 0 3.3
v -7.144754 3.244076 3.3
v -7.144754 0 3.7
v -7.144754 3.544075 3.7
v -7.144754 3.244076 0.4
v -7.144754 3.544075 0
v 0 3.244076 3.3
v 0 3.244076 0.4
v -0.09999999 3.244076 3.3
v -0.09999999 3.244076 0.4
v 0 0 3.7
v 0 0 3.3
v -0.4 0 3.7
v -0.4 0 3.3
v -0.4 0 3.6
v -0.4 0 3.4
v -6.744754 0 3.6
v -6.744754 0 3.4
v -6.744754 0 3.7
v -6.744754 0 3.3
v 0 0 0.4
v 0 0 0
v -0.4 0 0.4
v -0.4 0 0
v -6.744754 3.244076 0
v -6.744754 3.244076 0.4
v 0.09999999 3.844075 -0.09999999
v 0.09999999 3.844075 3.8
v -7.244754 3.844075 -0.09999999
v -7.244754 3.844075 3.8
v 0 3.544075 0
v 0 3.544075 3.7
v -7.244754 3.544075 -0.09999999
v 0.09999999 3.544075 -0.09999999
v 0.09999999 3.544075 3.8
v -7.244754 3.544075 3.8
v -0.09999999 0.5 3.3
v -0.09999999 0.5 0.4
v -0.3 0.5 3.3
v -0.3 0.5 0.4
v -6.844755 3.244076 0.4
v -6.844755 3.244076 3.3
v -7.044755 3.244076 3.3
v -6.744754 3.244076 3.3
v -7.044755 3.244076 0.4
v -0.4 3.244076 3.7
v -6.744754 3.244076 3.7
v -0.4 2.444076 0
v -0.4 2.444076 0.4
v -0.3 3.244076 3.3
v -0.4 3.244076 3.3
v -0.3 2.444076 0.4
v -6.744754 3.244076 3.6
v -0.4 3.244076 3.6
v -6.744754 3.244076 3.4
v -0.4 3.244076 3.4
v -0.4 3.244076 1.64
v -0.4 3.244076 0
v -2.368 3.244076 1.64
v -2.368 3.244076 7.219114E-15
v -0.3 2.444076 1.94
v -0.3 3.244076 1.94
v -2.668 3.244076 7.219114E-15
v -2.668 3.244076 1.94
v -2.668 2.444076 1.94
v -2.668 2.444076 7.219114E-15
v -0.4 2.744075 0
v -0.4 2.744075 0.4
v -2.368 2.744075 7.219114E-15
v -0.4 2.744075 1.64
v -2.368 2.744075 1.64

vt 0.02464682 0.7712609
vt 0.06959423 0.7712609
vt 0.02464682 0.7681612
vt 0.06959423 0.7681612
vt 0.06959423 0.7728109
vt 0.0757938 0.7728109
vt 0.06959423 0.7666112
vt 0.0757938 0.7666112
vt 0.0757938 0.9284953
vt 0.02551368 0.9284953
vt 0.0757938 0.934695
vt 0.02086392 0.934695
vt 0.02551368 0.883548
vt 0.02086392 0.8773484
vt 0.0757938 0.883548
vt 0.0757938 0.8773484
vt 0.02464683 0.8773484
vt 0.06959423 0.8773484
vt 0.02464683 0.8757985
vt 0.06959423 0.8757985
vt 0.01844725 0.8773484
vt 0.01844725 0.8711488
vt 0.02464683 0.8711488
vt 0.01999714 0.8711488
vt 0.02309697 0.8711488
vt 0.01999714 0.7728109
vt 0.02309697 0.7728109
vt 0.01844725 0.7666112
vt 0.01844725 0.7728109
vt 0.02464683 0.7728109
vt 0.02464682 0.7666112
vt 0.06959423 0.8711488
vt 0.0757938 0.8711488
vt 0.02551368 0.8773484
vt 0.02551368 0.8711488
vt 0.07734378 0.8757985
vt 0.01689736 0.8757985
vt 0.07734378 0.9896355
vt 0.01689736 0.9896355
vt 0.02086392 0.8200017
vt 0.02551368 0.8262014
vt 0.0757938 0.8262014
vt 0.0757938 0.8200017
vt 0.02086392 0.9896355
vt 0.02086392 0.8757985
vt 0.01621416 0.9896355
vt 0.01621416 0.8757985
vt 0.01621416 0.8788983
vt 0.02086392 0.8788983
vt 0.01621416 0.8184519
vt 0.02086392 0.8184519
vt 0.02086392 0.9362448
vt 0.01621416 0.9362448
vt 0.02086392 0.7650613
vt 0.01621415 0.7650613
vt 0.02464683 0.8726987
vt 0.06959423 0.8726987
vt 0.06804433 0.8711488
vt 0.06804433 0.8262014
vt 0.02551368 0.9865355
vt 0.02551368 0.9880855
vt 0.06804433 0.9865355
vt 0.0757938 0.9880855
vt 0.0757938 0.9818859
vt 0.06804433 0.9834358
vt 0.02551368 0.9818859
vt 0.02551368 0.9834358
vt 0.06804433 0.883548
vt 0.06804433 0.9284953
vt 0.02551368 0.7712609
vt 0.02551368 0.7728109
vt 0.06804433 0.7712609
vt 0.06804433 0.7681612
vt 0.02551368 0.7666112
vt 0.02551368 0.7681612
vt 0.02086392 0.7666112
vt 0.03791291 0.8773484
vt 0.03791291 0.883548
vt 0.02551368 0.8819981
vt 0.06804433 0.8819981
vt 0.06804433 0.8788983
vt 0.02551368 0.8788983
vt 0.02551368 0.8757985
vt 0.06804433 0.8757985
vt 0.06804433 0.8726987
vt 0.03791291 0.8711488
vt 0.03791291 0.8726987
vt 0.02551368 0.8215517
vt 0.0757938 0.8215517
vt 0.02551368 0.8200017
vt 0.0757938 0.9331451
vt 0.02551368 0.9331451
vt 0.02551368 0.934695
vt 0.02551368 0.8246515
vt 0.0757938 0.8246515
vt 0.0757938 0.9300453
vt 0.02551368 0.9300453
vt 0.05037538 0.8711488
vt 0.05037538 0.8406466
vt 0.0757938 0.8406466
vt 0.03791291 0.9074166
vt 0.02551368 0.9074166
vt 0.0757938 0.8359968
vt 0.04572565 0.8359968
vt 0.04572565 0.8726987
vt 0.03791291 0.8359968
vt 0.02551368 0.8726987
vt 0.02551368 0.8359968
vt 0.06959423 0.883548
vt 0.0757938 0.9140502
vt 0.05037538 0.883548
vt 0.05037538 0.9140502
vt 0.03326315 0.8773484
vt 0.03326315 0.883548
vt 0.02551368 0.9027669
vt 0.03326315 0.9027669
vt 0.02551368 0.8519299
vt 0.03326315 0.8519299
vt 0.03326315 0.9140502
vt 0.02551368 0.9140502
vt 0.02086392 0.9880855
vt 0.02551368 0.9186999
vt 0.03791291 0.9186999
vt 0.01689735 0.7650613
vt 0.01689736 0.8788983
vt 0.07734378 0.7650613
vt 0.07734378 0.8788983

vn 0 -1 0
vn -1 0 0
vn 1 0 0
vn 0 1 0
vn 0 0 -1
vn 0 0 1

usemtl furniturebits_texture_2
f 22/23/1 21/22/1 23/24/1
f 22/23/1 23/24/1 24/25/1
f 33/6/1 52/30/1 34/5/1
f 33/6/1 63/27/1 52/30/1
f 77/110/4 76/109/4 75/15/4
f 76/114/2 66/34/2 75/113/2
f 68/120/5 71/122/5 33/66/5
f 39/14/5 66/13/5 14/121/5
f 39/14/5 75/114/5 66/13/5
f 39/14/5 56/78/5 75/114/5
f 4/4/1 2/2/1 1/1/1
f 1/1/1 3/3/1 4/4/1
f 8/8/1 6/6/1 5/5/1
f 5/5/1 7/7/1 8/8/1
f 12/12/2 10/10/2 9/9/2
f 9/9/2 11/11/2 12/12/2
f 14/14/2 13/13/2 10/10/2
f 10/10/2 12/12/2 14/14/2
f 8/16/2 7/15/2 13/13/2
f 13/13/2 14/14/2 8/16/2
f 18/20/1 16/18/1 15/17/1
f 15/17/1 17/19/1 18/20/1
f 22/23/1 20/17/1 19/21/1
f 19/21/1 21/22/1 22/23/1
f 26/27/1 24/25/1 23/24/1
f 23/24/1 25/26/1 26/27/1
f 27/29/1 11/28/1 26/27/1
f 26/27/1 25/26/1 27/29/1
f 28/30/1 26/27/1 11/28/1
f 11/28/1 9/31/1 28/30/1
f 32/33/1 30/16/1 29/18/1
f 29/18/1 31/32/1 32/33/1
f 5/33/3 6/16/3 33/34/3
f 33/34/3 34/35/3 5/33/3
f 38/39/4 36/37/4 35/36/4
f 35/36/4 37/38/4 38/39/4
f 16/35/3 29/33/3 30/16/3
f 30/16/3 39/14/3 16/35/3
f 16/35/3 39/14/3 40/40/3
f 40/40/3 15/41/3 16/35/3
f 20/42/3 15/41/3 40/40/3
f 40/40/3 19/43/3 20/42/3
f 35/47/5 42/45/5 41/44/5
f 41/44/5 37/46/5 35/47/5
f 43/51/3 42/49/3 35/48/3
f 35/48/3 36/50/3 43/51/3
f 38/53/2 37/47/2 41/45/2
f 41/45/2 44/52/2 38/53/2
f 38/55/6 44/54/6 43/49/6
f 43/49/6 36/48/6 38/55/6
f 48/57/1 46/20/1 45/19/1
f 45/19/1 47/56/1 48/57/1
f 1/59/3 2/58/3 49/35/3
f 49/35/3 50/41/3 1/59/3
f 9/63/5 10/61/5 51/60/5
f 51/60/5 3/62/5 9/63/5
f 28/64/5 9/63/5 3/62/5
f 3/62/5 1/65/5 28/64/5
f 52/66/5 28/64/5 1/65/5
f 1/65/5 50/67/5 52/66/5
f 51/10/2 53/13/2 4/68/2
f 4/68/2 3/69/2 51/10/2
f 5/6/6 34/71/6 49/70/6
f 49/70/6 2/72/6 5/6/6
f 7/8/6 5/6/6 2/72/6
f 2/72/6 4/73/6 7/8/6
f 13/74/6 7/8/6 4/73/6
f 4/73/6 53/75/6 13/74/6
f 54/35/6 21/33/6 19/16/6
f 19/16/6 40/14/6 54/35/6
f 55/71/6 54/35/6 40/14/6
f 40/14/6 12/76/6 55/71/6
f 27/6/6 55/71/6 12/76/6
f 12/76/6 11/8/6 27/6/6
f 57/78/2 56/77/2 32/16/2
f 32/16/2 31/15/2 57/78/2
f 22/15/5 59/13/5 58/79/5
f 58/79/5 47/80/5 22/15/5
f 20/16/5 22/15/5 47/80/5
f 47/80/5 45/81/5 20/16/5
f 15/34/5 20/16/5 45/81/5
f 45/81/5 17/82/5 15/34/5
f 45/59/3 46/58/3 18/35/3
f 18/35/3 17/41/3 45/59/3
f 29/16/6 16/34/6 18/83/6
f 18/83/6 46/84/6 29/16/6
f 31/33/6 29/16/6 46/84/6
f 46/84/6 48/85/6 31/33/6
f 57/86/6 31/33/6 48/85/6
f 48/85/6 60/87/6 57/86/6
f 27/43/3 25/89/3 61/88/3
f 61/88/3 55/90/3 27/43/3
f 54/93/2 62/92/2 23/91/2
f 23/91/2 21/11/2 54/93/2
f 61/26/1 62/24/1 54/22/1
f 54/22/1 55/29/1 61/26/1
f 61/71/6 25/6/6 23/33/6
f 23/33/6 62/35/6 61/71/6
f 64/13/5 24/15/5 26/64/5
f 26/64/5 63/66/5 64/13/5
f 26/95/3 28/42/3 52/41/3
f 52/41/3 63/94/3 26/95/3
f 64/97/2 59/10/2 22/9/2
f 22/9/2 24/96/2 64/97/2
f 68/100/1 66/33/1 65/98/1
f 65/98/1 67/99/1 68/100/1
f 13/7/1 53/4/1 51/3/1
f 51/3/1 10/31/1 13/7/1
f 69/101/2 60/78/2 48/68/2
f 48/68/2 47/69/2 69/101/2
f 70/102/2 69/101/2 47/69/2
f 47/69/2 58/10/2 70/102/2
f 52/30/1 50/1/1 49/2/1
f 49/2/1 34/5/1 52/30/1
f 72/104/1 63/27/1 33/6/1
f 33/6/1 71/103/1 72/104/1
f 64/25/1 63/27/1 72/104/1
f 72/104/1 59/23/1 64/25/1
f 58/56/1 59/23/1 72/104/1
f 72/104/1 70/105/1 58/56/1
f 72/108/6 73/106/6 69/87/6
f 69/87/6 70/107/6 72/108/6
f 72/102/2 71/34/2 74/77/2
f 74/77/2 73/101/2 72/102/2
f 78/111/4 76/109/4 77/110/4
f 77/110/4 79/112/4 78/111/4
f 57/32/1 60/57/1 69/105/1
f 69/105/1 73/104/1 57/32/1
f 56/33/1 57/32/1 73/104/1
f 73/104/1 74/103/1 56/33/1
f 65/115/2 66/34/2 76/114/2
f 76/114/2 78/116/2 65/115/2
f 79/118/3 77/113/3 68/34/3
f 68/34/3 67/117/3 79/118/3
f 65/13/5 78/114/5 79/119/5
f 79/119/5 67/120/5 65/13/5
f 33/66/5 6/64/5 8/63/5
f 8/63/5 14/121/5 33/66/5
f 68/120/5 33/66/5 14/121/5
f 14/121/5 66/13/5 68/120/5
f 74/123/5 71/122/5 68/120/5
f 68/120/5 77/119/5 74/123/5
f 56/78/5 74/123/5 77/119/5
f 77/119/5 75/114/5 56/78/5
f 32/15/5 56/78/5 39/14/5
f 39/14/5 30/16/5 32/15/5
f 43/125/1 44/124/1 12/28/1
f 12/28/1 40/21/1 43/125/1
f 14/8/1 12/28/1 44/124/1
f 44/124/1 41/126/1 14/8/1
f 42/127/1 43/125/1 40/21/1
f 40/21/1 39/16/1 42/127/1
f 42/127/1 39/16/1 14/8/1
f 14/8/1 41/126/1 42/127/1

