# ProBuilder 5.2.3
# https://unity3d.com/unity/features/worldbuilding/probuilder
# 04/05/2025 22:15:37

mtllib ./Plane.mtl
o Plane

g Plane
v 0.8533053 0 -0.8379221
v 0.8533053 0 0
v 0.8533053 0 0.8379221
v 0 0 -0.8379221
v -0.8533053 0 -0.8379221
v 0 0 0
v 0 0 0.8379221
v -0.8533053 0 0
v -0.8533053 0 0.8379221

vt -0.8533053 -0.8379221
vt -0.8533053 0
vt -0.8533053 0.8379221
vt 0 -0.8379221
vt 0.8533053 -0.8379221
vt 0 0
vt 0 0.8379221
vt 0.8533053 0
vt 0.8533053 0.8379221

vn 0 1 0

usemtl Glass
f 8/8/1 7/7/1 6/6/1
f 8/8/1 9/9/1 7/7/1
f 5/5/1 6/6/1 4/4/1
f 5/5/1 8/8/1 6/6/1
f 4/4/1 2/2/1 1/1/1
f 4/4/1 6/6/1 2/2/1
f 6/6/1 3/3/1 2/2/1
f 6/6/1 7/7/1 3/3/1

